<svg xmlns="http://www.w3.org/2000/svg" viewBox="0 0 412.79 103.52"><defs><style>.cls-1{fill:#484847;}.cls-2{fill:#f9000e;}</style></defs><g id="Calque_2" data-name="Calque 2"><g id="Calque_8" data-name="Calque 8"><polygon class="cls-1" points="107.37 34.43 107.37 23.27 108.79 23.27 108.79 33 113.02 33 113.02 34.43 107.37 34.43"/><polygon class="cls-1" points="115.61 34.43 115.61 23.27 121.5 23.27 121.5 24.46 117.27 24.46 117.27 28.02 121.5 28.02 121.5 29.21 117.27 29.21 117.27 33 121.5 33 121.5 34.43 115.61 34.43"/><path class="cls-1" d="M134.22,34.43c-3.3,0-5.65-1.9-5.65-5.46A5.77,5.77,0,0,1,134.69,23a15.75,15.75,0,0,1,3.3.48l-.24,1.42a15.88,15.88,0,0,0-3.06-.47,4.15,4.15,0,0,0-4.48,4.27,4.17,4.17,0,0,0,4.25,4.51,7,7,0,0,0,2.11-.47v-4h1.65V34A20.29,20.29,0,0,1,134.22,34.43Z"/><path class="cls-1" d="M146.47,24.46c-1.89,0-3.77,1.42-3.77,4.27,0,2.37.94,4.51,3.77,4.51,2.11,0,3.52-1.66,3.52-4.27C150,25.88,148.82,24.46,146.47,24.46Zm-.24,10c-3.53,0-5.18-2.38-5.18-5.46,0-3.8,2.59-5.94,5.65-5.94s5.18,1.9,5.18,5.7A5.33,5.33,0,0,1,146.23,34.43Z"/><path class="cls-1" d="M159.41,34.43c-2.82,0-4.47-1.19-4.47-3.8V23.27h1.65v7.12c0,1.9,1.18,2.85,3.06,2.85a2.85,2.85,0,0,0,3.06-3.08V23.27h1.65v6.89C164.36,32.53,163,34.43,159.41,34.43Z"/><path class="cls-1" d="M172.6,34.43h-1.88l-4.24-11.16h1.65l2.59,6.65a13.78,13.78,0,0,1,.94,2.85,13.21,13.21,0,0,0,.94-2.85l2.83-6.65h1.65Z"/><polygon class="cls-1" points="179.19 34.43 179.19 23.27 185.32 23.27 185.32 24.46 180.85 24.46 180.85 28.02 185.08 28.02 185.08 29.21 180.85 29.21 180.85 33 185.32 33 185.32 34.43 179.19 34.43"/><path class="cls-1" d="M191.68,24.46h-1.19v3.8h1.19c1.64,0,2.59-.72,2.59-2.14C194.27,24.93,193.32,24.46,191.68,24.46Zm2.82,10-4-5v5h-1.64V23.27c.71,0,1.88-.24,3.06-.24,2.59,0,4,1.19,4,3.09a3.24,3.24,0,0,1-3.53,3.09c.24.23.47.71.94,1.18l3.3,4Z"/><path class="cls-1" d="M207,34.43l-4.71-7.12a9.66,9.66,0,0,1-1.17-2.14v9.26h-1.42V23.27h2.12l4.48,6.89a9.79,9.79,0,0,1,1.17,2.13v-9h1.65V34.43Z"/><polygon class="cls-1" points="213.34 34.43 213.34 23.27 219.46 23.27 219.46 24.46 214.99 24.46 214.99 28.02 219.22 28.02 219.22 29.21 214.99 29.21 214.99 33 219.46 33 219.46 34.43 213.34 34.43"/><path class="cls-1" d="M234.53,34.43l-.94-6.65a17.33,17.33,0,0,0-.48-2.61,11.08,11.08,0,0,1-.46,1.9l-2.6,7.36h-1.64l-2.35-6.89a6.19,6.19,0,0,1-.71-2.37c-.24.71-.24,1.66-.48,2.61l-.7,6.65h-1.65l1.65-11.16h1.89l2.58,7.12c.24.71.48,1.43.71,2.14a9.19,9.19,0,0,1,.47-2.14l2.6-7.12h2.11l1.65,11.16Z"/><polygon class="cls-1" points="239.95 34.43 239.95 23.27 246.07 23.27 246.07 24.46 241.59 24.46 241.59 28.02 245.83 28.02 245.83 29.21 241.59 29.21 241.59 33 246.07 33 246.07 34.43 239.95 34.43"/><path class="cls-1" d="M256.9,34.43l-4.47-7.12c-.47-.72-.94-1.43-1.42-2.14,0,.71.24,1.66.24,2.85v6.41H249.6V23.27h2.12l4.47,6.89,1.42,2.13c0-.71-.24-1.9-.24-3.8V23.27H259V34.43Z"/><polygon class="cls-1" points="266.32 24.46 266.32 34.43 264.67 34.43 264.67 24.46 261.38 24.46 261.38 23.27 269.62 23.27 269.62 24.46 266.32 24.46"/><path class="cls-1" d="M110.67,47.25a5.07,5.07,0,0,0-1.88.24V55.8a4.06,4.06,0,0,0,1.64.23c2.83,0,4.72-1.42,4.72-4.51C115.15,48.67,113.5,47.25,110.67,47.25Zm-.47,10h-2.83V46.06h3.54c3.53,0,5.88,1.66,5.88,5.46C116.79,55.56,114,57.22,110.2,57.22Z"/><path class="cls-1" d="M124.33,57.46c-3.06,0-4.47-1.43-4.47-4V46.06h1.64v7.12c0,1.9,1,2.85,3.06,2.85A2.74,2.74,0,0,0,127.62,53V46.06h1.66V53C129.28,55.32,127.86,57.46,124.33,57.46Z"/><path class="cls-1" d="M142.46,57.46c-3.3,0-5.65-1.9-5.65-5.7a5.59,5.59,0,0,1,5.89-5.94,13.56,13.56,0,0,1,3.29.48L145.76,48a6.54,6.54,0,0,0-3.06-.71c-2.36,0-4.24,1.42-4.24,4.51A4,4,0,0,0,142.7,56c.71,0,1.41-.23,1.88-.23V51.52h1.65v5.23A9.78,9.78,0,0,1,142.46,57.46Z"/><path class="cls-1" d="M153.05,47.25h-1.17v3.8h1.41c1.42,0,2.36-.72,2.36-1.9S154.71,47.25,153.05,47.25Zm2.83,10-3.76-5h-.24v5h-1.65V46.06h3.06c2.59,0,4,.95,4,2.85s-1.42,3.09-3.54,3.32a5.37,5.37,0,0,1,1,1.19l3.3,3.8Z"/><path class="cls-1" d="M165.3,49.62a16.94,16.94,0,0,0-.71-1.9c-.23.72-.47,1.19-.7,1.9l-1.41,3.8h4.24Zm2.83,7.6-.95-2.37H162l-.93,2.37h-1.66l4.25-11.16h1.88l4.24,11.16Z"/><path class="cls-1" d="M179.9,57.22l-4.7-6.89A11,11,0,0,1,174,48v9.26H172.6V46.06h2.12L179.19,53a7.31,7.31,0,0,1,1.18,2.37V46.06H182V57.22Z"/><path class="cls-1" d="M189.56,47.25a4,4,0,0,0-1.65.24V55.8c.23.23.94.23,1.65.23,2.59,0,4.47-1.42,4.47-4.51C194,48.67,192.62,47.25,189.56,47.25Zm-.24,10h-3.06V46.06h3.53c3.77,0,5.89,1.66,5.89,5.46C195.68,55.56,193.08,57.22,189.32,57.22Z"/><rect class="cls-1" x="197.8" y="51.28" width="4.94" height="1.19"/><path class="cls-1" d="M209.1,47.25a4,4,0,0,0-1.65.24V55.8c.23.23.94.23,1.42.23,2.82,0,4.7-1.42,4.7-4.51C213.57,48.67,212.16,47.25,209.1,47.25Zm-.23,10H205.8V46.06h3.54c3.76,0,5.89,1.66,5.89,5.46C215.23,55.56,212.63,57.22,208.87,57.22Z"/><path class="cls-1" d="M222.76,57.46c-2.83,0-4.47-1.43-4.47-4V46.06h1.64v7.12c0,1.9,1.18,2.85,3.06,2.85,2.36,0,3.07-1.18,3.07-3.08V46.06h1.64V53C227.7,55.32,226.29,57.46,222.76,57.46Z"/><path class="cls-1" d="M236.18,57.46c-3.53,0-5.42-2.14-5.42-5.46s1.66-6.18,5.89-6.18a11.88,11.88,0,0,1,2.59.48L239,47.72a12.32,12.32,0,0,0-2.59-.47c-2.59,0-4,1.9-4,4.51s1.4,4.27,4,4.27a4.64,4.64,0,0,0,2.59-.71l.24,1.43A6.51,6.51,0,0,1,236.18,57.46Z"/><polygon class="cls-1" points="249.84 57.22 249.84 52.23 243.95 52.23 243.95 57.22 242.3 57.22 242.3 46.06 243.95 46.06 243.95 50.81 249.84 50.81 249.84 46.06 251.49 46.06 251.49 57.22 249.84 57.22"/><path class="cls-1" d="M258.32,44.88l-.71-1,2.59-2.37.94,1Zm-2.6,12.34V46.06h6.12v1.19h-4.47v3.56h4.24V52h-4.24v4h4.47v1.19Z"/><path class="cls-1" d="M273.38,47.25a5.1,5.1,0,0,0-1.88.24V55.8a4.08,4.08,0,0,0,1.64.23c2.83,0,4.72-1.42,4.72-4.51C277.86,48.67,276.21,47.25,273.38,47.25Zm-.47,10h-2.82V46.06h3.53c3.53,0,5.88,1.66,5.88,5.46C279.5,55.56,276.68,57.22,272.91,57.22Z"/><polygon class="cls-1" points="282.57 57.22 282.57 46.06 288.69 46.06 288.69 47.25 284.21 47.25 284.21 50.81 288.45 50.81 288.45 52 284.21 52 284.21 56.03 288.69 56.03 288.69 57.22 282.57 57.22"/><polygon class="cls-1" points="296.69 57.22 296.69 46.06 298.35 46.06 298.35 55.8 302.58 55.8 302.58 57.22 296.69 57.22"/><path class="cls-1" d="M309.41,57.46c-3.06,0-4.71-1.43-4.71-4V46.06h1.65v7.12c0,1.9,1.17,2.85,3.06,2.85,2.36,0,3.07-1.18,3.07-3.08V46.06h1.64V53C314.12,55.32,312.71,57.46,309.41,57.46Z"/><polygon class="cls-1" points="324.95 57.22 321.89 52.71 318.6 57.22 316.71 57.22 320.95 51.76 316.71 46.06 318.83 46.06 321.89 50.34 325.19 46.06 327.07 46.06 322.83 51.52 327.07 57.22 324.95 57.22"/><polygon class="cls-1" points="329.9 57.22 329.9 46.06 336.02 46.06 336.02 47.25 331.55 47.25 331.55 50.81 335.79 50.81 335.79 52 331.55 52 331.55 56.03 336.02 56.03 336.02 57.22 329.9 57.22"/><path class="cls-1" d="M351.09,57.22l-.94-6.41a16,16,0,0,1-.24-2.85h-.23a7.54,7.54,0,0,1-.47,1.9l-2.59,7.36H345l-2.35-6.89A9.3,9.3,0,0,1,341.9,48c-.23.95-.23,1.66-.46,2.85l-.71,6.41h-1.65l1.65-11.16h2.12l2.35,7.12a11,11,0,0,0,.71,2.14c.24-.71.24-1.19.47-1.9L349,46.06h2.12l1.65,11.16Z"/><path class="cls-1" d="M359.09,52h-.93v4h1.41c1.88,0,2.82-1,2.82-2.13C362.39,52.47,361,52,359.09,52Zm.71-4.75h-1.64v3.56h.93c1.89,0,3.06-.48,3.06-1.9C362.15,48,361.68,47.25,359.8,47.25Zm-.23,10H356.5V46.06H360c2.59,0,3.77.95,3.77,2.61a2.73,2.73,0,0,1-2.13,2.62A2.54,2.54,0,0,1,364,53.9C364,55.32,363.34,57.22,359.57,57.22Z"/><path class="cls-1" d="M371.81,47.25c-1.88,0-3.53,1.66-3.53,4.27,0,2.38.94,4.51,3.53,4.51,2.12,0,3.77-1.42,3.77-4.27S374.17,47.25,371.81,47.25Zm0,10.21c-3.77,0-5.18-2.38-5.18-5.7,0-3.8,2.36-5.94,5.42-5.94,3.3,0,5.18,2.14,5.18,5.7C377.23,55.32,374.87,57.46,371.81,57.46Z"/><path class="cls-1" d="M385,57.46c-3.07,0-4.71-1.43-4.71-4V46.06h1.64v7.12c0,1.9,1.18,2.85,3.07,2.85,2.35,0,3.06-1.18,3.06-3.08V46.06h1.65V53C389.71,55.32,388.29,57.46,385,57.46Z"/><path class="cls-1" d="M396.77,47.25H395.6v3.8h1.17c1.42,0,2.35-.72,2.35-1.9S398.19,47.25,396.77,47.25Zm2.83,10-4-5v5h-1.66V46.06H397c2.59,0,4,.95,4,2.85s-1.65,3.09-3.77,3.32c.48.24.71.72,1.18,1.19l3.06,3.8Z"/><path class="cls-1" d="M409,57.46c-3.3,0-5.65-1.9-5.65-5.7,0-3.32,2.11-5.94,6.12-5.94a13.53,13.53,0,0,1,3.06.48L412.32,48a6.58,6.58,0,0,0-3.07-.71A4.15,4.15,0,0,0,405,51.76,4,4,0,0,0,409.25,56c.71,0,1.41-.23,2.12-.23V51.52h1.42v5.23A9.81,9.81,0,0,1,409,57.46Z"/><path class="cls-2" d="M118.21,80.25l-.94-6.89a12.57,12.57,0,0,1-.24-2.61h-.24a10.24,10.24,0,0,1-.47,1.9l-2.59,7.6h-1.41l-2.59-7.12a15.21,15.21,0,0,0-.7-2.38,13.47,13.47,0,0,1-.24,2.85l-.71,6.65h-1.41l1.65-11.16H110l2.36,7.6a5.48,5.48,0,0,1,.7,2.13c.24-.71.48-1.18.71-1.89l2.59-7.84H118l1.64,11.16Z"/><path class="cls-2" d="M122.21,80.25V72.18h1.18v8.07Zm.47-9.73a.63.63,0,0,1-.71-.72c0-.47.24-1,.71-1a1,1,0,0,1,.95,1C123.63,70.28,123.15,70.52,122.68,70.52Z"/><path class="cls-2" d="M131.87,80.25V75c0-1.19-.48-2.14-1.66-2.14-1.4,0-2.59,1.66-2.59,3.56v3.8h-1.17V72.18h1.17v1.9a2.78,2.78,0,0,1,2.83-2.14A2.36,2.36,0,0,1,133,74.55v5.7Z"/><path class="cls-2" d="M136.1,80.25V72.18h1.18v8.07Zm.71-9.73c-.47,0-.95-.24-.95-.72a1,1,0,0,1,.95-1c.47,0,.71.48.71,1A.63.63,0,0,1,136.81,70.52Z"/><path class="cls-2" d="M141.75,80.49a5.1,5.1,0,0,1-1.88-.24l.24-1c.47,0,1.17.24,1.64.24,1.18,0,2.13-.72,2.13-1.43,0-2.13-4-.71-4-3.8,0-1.18,1.18-2.37,3.3-2.37a2.93,2.93,0,0,1,1.41.24v.95c-.47,0-1.17-.24-1.65-.24-1.18,0-1.88.47-1.88,1.42,0,1.9,4,.72,4,3.57C145.05,79.3,143.88,80.49,141.75,80.49Z"/><path class="cls-2" d="M150,80.49c-1.64,0-2.11-.72-2.11-2.38v-5h-1.65v-.95h1.65V69.33l1.41-.24v3.09h2.36v.95h-2.36v4.51c0,1.42.24,1.66,1.17,1.66h1.19v1A3.49,3.49,0,0,1,150,80.49Z"/><path class="cls-2" d="M157.06,70.75l-2.35-1.66.7-1,2.12,1.9Zm-.47,2.14c-1.18,0-1.88,1-2.12,2.14h4A1.81,1.81,0,0,0,156.59,72.89Zm3.3,3.09h-5.42c-.23,2.37.71,3.56,2.59,3.56a5.75,5.75,0,0,0,2.35-.48l.24,1a10,10,0,0,1-2.83.48c-2.35,0-3.77-1.43-3.77-4.28,0-2.37,1.42-4.27,3.54-4.27a3.1,3.1,0,0,1,3.3,3.32Z"/><path class="cls-2" d="M166.25,73.13c-1.89-.24-2.59,1.18-2.59,4v3.09h-1.42V72.18h1.18v2.13c.24-1.42,1.17-2.61,2.83-2.37Z"/><path class="cls-2" d="M170.72,72.89c-1.18,0-1.88,1-2.12,2.14h4.24A2,2,0,0,0,170.72,72.89ZM174,76H168.6c-.24,2.37.71,3.56,2.59,3.56a5.79,5.79,0,0,0,2.35-.48l.24,1a8.67,8.67,0,0,1-2.83.48c-2.35,0-3.77-1.43-3.77-4.28,0-2.37,1.42-4.27,3.54-4.27A3.09,3.09,0,0,1,174,75.26Z"/><path class="cls-2" d="M185.08,73.13c-.47,0-.94-.24-1.64-.24-1.66,0-2.83,1.19-2.83,3.56,0,1.9.7,3.09,2.12,3.09,1.64,0,2.35-1.9,2.35-3.33Zm0,7.12a4,4,0,0,1,.24-1.66,3.08,3.08,0,0,1-2.83,1.9c-2.12,0-3.06-1.43-3.06-3.8,0-3.09,1.65-4.75,4.24-4.75a2.93,2.93,0,0,1,1.41.24v-4h1.18V80.25Z"/><path class="cls-2" d="M192.15,72.89c-1.18,0-1.89,1-2.13,2.14h4.25A2,2,0,0,0,192.15,72.89ZM195.44,76H190c-.23,2.37.95,3.56,2.6,3.56a5.79,5.79,0,0,0,2.35-.48l.24,1a8.67,8.67,0,0,1-2.83.48c-2.36,0-3.77-1.43-3.77-4.28,0-2.37,1.41-4.27,3.77-4.27a3,3,0,0,1,3.06,3.32Z"/><rect class="cls-2" x="201.56" y="68.14" width="1.41" height="12.11"/><path class="cls-2" d="M205.09,71.7c1.19-1.18,1.19-1.9.71-2.37a.8.8,0,0,1,.71-1.19c1.17,0,1.65,1.9-.71,4Z"/><rect class="cls-2" x="210.04" y="69.09" width="1.18" height="11.16"/><path class="cls-2" d="M219.7,80.25V75c0-1.19-.48-2.14-1.65-2.14-1.42,0-2.36,1.66-2.36,3.56v3.8h-1.41V72.18h1.41c0,.47-.23,1.18-.23,1.66v.24a3,3,0,0,1,3.06-2.14c1.88,0,2.36,1.19,2.36,2.61v5.7Z"/><path class="cls-2" d="M226.29,80.49c-1.65,0-2.12-.72-2.12-2.38v-5h-1.89v-.95h1.89V69.33l1.18-.24v3.09h2.35v.95h-2.35v4.51c0,1.42.23,1.66,1.18,1.66h1.17v1A2.93,2.93,0,0,1,226.29,80.49Z"/><path class="cls-2" d="M232.42,70.75l-.48-.71,2.12-1.9.71,1Zm.46,2.14A2.53,2.53,0,0,0,230.52,75h4.25A1.94,1.94,0,0,0,232.88,72.89ZM235.94,76h-5.42c0,2.37.95,3.56,2.83,3.56a8.26,8.26,0,0,0,2.36-.48v1a8.36,8.36,0,0,1-2.6.48c-2.59,0-3.76-1.43-3.76-4.28,0-2.37,1.17-4.27,3.53-4.27a3,3,0,0,1,3.06,3.32Z"/><path class="cls-2" d="M242.3,73.13c-1.64-.24-2.59,1.18-2.59,4v3.09h-1.18V72.18h1.18a5.88,5.88,0,0,1-.24,1.9v.23c.48-1.42,1.19-2.61,3.07-2.37Z"/><path class="cls-2" d="M244.42,80.25V72.18h1.18v8.07Zm.71-9.73c-.48,0-.94-.24-.94-.72a1,1,0,0,1,.94-1c.47,0,.7.48.7,1A.63.63,0,0,1,245.13,70.52Z"/><path class="cls-2" d="M251.49,72.89c-1.19,0-1.89,1-2.12,2.14h4.23A2,2,0,0,0,251.49,72.89ZM254.78,76h-5.41c-.24,2.37.93,3.56,2.59,3.56a5.79,5.79,0,0,0,2.35-.48l.24,1a8.67,8.67,0,0,1-2.83.48c-2.35,0-3.77-1.43-3.77-4.28,0-2.37,1.42-4.27,3.77-4.27a3,3,0,0,1,3.06,3.32Z"/><path class="cls-2" d="M262.55,80.25V78.59a2.84,2.84,0,0,1-2.82,1.9,2.36,2.36,0,0,1-2.59-2.61v-5.7h1.41V77.4c0,1.42.23,2.14,1.41,2.14,1.41,0,2.59-1.43,2.59-3.56v-3.8h1.18v8.07Z"/><path class="cls-2" d="M270.79,73.13c-1.88-.24-2.59,1.18-2.59,4v3.09h-1.41V72.18h1.41c0,.47-.23,1.18-.23,1.9v.23c.23-1.42,1.18-2.61,2.82-2.37Z"/><path class="cls-2" d="M11.54,66.72S22.84,76,28,67.43A19.35,19.35,0,0,0,30.38,61a6.22,6.22,0,0,1,3.06-4.51,7.7,7.7,0,0,0,4.24,6.17c.23,0,.7.24.94.24a.84.84,0,0,0-.47-.71c-.71-.48-.95-.24-1.18-.48-.71-.71-1.88-1.9-1.88-2.61l2.59,1.19a3.21,3.21,0,0,1,2.11,3.08A11,11,0,0,0,41,67s-6.12-.47-10.12,6.41l-.47-.71s0,2.38-1.42,3.09c0,0-.23-1.43-1.17-1.66,0,0-.24,2.37-1.89,3.32A2.19,2.19,0,0,0,25,75.26s-1.41,3.33-4.47,3.33a6.07,6.07,0,0,0,.23-2.85s-3.06,3.08-5.88,1.9A5,5,0,0,0,16,74.31S12.48,76.45,9,71.23c0,0,.94,1,4-.48C13,70.75,11.07,68.62,11.54,66.72Z"/><path class="cls-2" d="M16.25,16.86s3.77.71.7,7.36c0,0-1.41,5.46,1.65,7.83a8.88,8.88,0,0,1,.94,1.19s-3.76,1.19-1.41,8.07a6.35,6.35,0,0,1-3.29-2.37s.7-.24.94-1.43a3.24,3.24,0,0,1-3.54-1.18l1.65-1.43s-1.41,0-3.29-2.61l2.12-.95a3.76,3.76,0,0,1-3.07-2.61h2.12s-1.88-3.32-1.41-5.22A7.53,7.53,0,0,0,13,24.93a2.87,2.87,0,0,0-.47-3.56,4.38,4.38,0,0,1,.24-3.56s0,.24,1.41.71c0,0,1.41,0,2.12,2.85l.23-.23S15.31,18.76,16.25,16.86Z"/><path class="cls-2" d="M47.33,57.22,49.69,57S61.22,55.56,61,40.36c0,0-.47-8.78-6.83-12.82-.47-.23-1.41-.95-2.36-1.42-1.17-.24-3.29-.71-5.18.47a2.79,2.79,0,0,0-1.41,1.9c-.23.72-.47,2.85,2.12,5l.94-1.19s-1.88-1.42-1.18-2.85A1.62,1.62,0,0,1,49,28.26c1.41-.24,6.83.23,9.65,10.2a16.25,16.25,0,0,1-4.24,13.77s1-3.79-3.06-10c0,0-3.76-5.22,1.18-11.87l-1.41-.95S44.5,37,49.92,43.69c0,0,4,5,2.36,8.31a3.76,3.76,0,0,1-2.12,2.13c-.95.24-3.54.72-3.54.72Z"/><path class="cls-2" d="M53.45,26.36S56.51,22.79,65,21.85c0,0,.71,2.37-4.24,3.79,0,0,.24.95,4.48,0,0,0-1.65,3.8-6.6,1.9a5.48,5.48,0,0,0-3.53,0Z"/><path class="cls-2" d="M33.91,10s1.65,1,1.65,4l7.77,2.85a5.53,5.53,0,0,1,3.76-3.09s-.23-.47-2.35-.23c0,0-.24-.71-1.41-.71,0,0-.47.47,0,1.66a14.43,14.43,0,0,0-1.42.95,3.69,3.69,0,0,0-.7-1.43s1.41-.47,1.41-1.66a2.39,2.39,0,0,1-.94.24,2,2,0,0,0-.47-2.86A4.91,4.91,0,0,0,40,12.11a2.48,2.48,0,0,0-1.41-.71,3,3,0,0,0,.23,1.9,2.68,2.68,0,0,1-1.17.95,2.45,2.45,0,0,1-1.18-1.42l.47-.24a3.26,3.26,0,0,0,.94-.48,2.06,2.06,0,0,0-1.41-.47V11.4h.23S36.73,9.5,33.91,10Z"/><path class="cls-2" d="M33.67,48.2l-.47-.48a5,5,0,0,0,3.06-3.56c.94-4.51,3.53-4.51,3.53-4.51l-.47.48c-1.64.47-1.88,3.56-1.88,3.56A4.89,4.89,0,0,1,33.67,48.2Zm-2.59.24-1.65.71L29,48.91l.24-.24h.71c1.88-1.18,2.82-4.75,2.82-4.75,1.65-3.56,4-3.79,4-3.79l.24.23-.47.24c-2.36.95-2.83,3.8-2.83,3.8C33.67,48,31.08,48.44,31.08,48.44Zm5.18-29.68s.24-.24.24.24h0a.71.71,0,0,0-.47.24s-.24.23-.47-.24Zm24,60.78c-.23-.72-.47-1.66-.47-1.66h2.35c-2.35,0-2.35-4-2.35-4a6.23,6.23,0,0,1,1.41-5.46c-6.59.24-8-3.8-8-3.8-3.06-2.85-4-10-4-10a3.29,3.29,0,0,0-.47-1,5.21,5.21,0,0,0-1.17-1.43,37.1,37.1,0,0,0-4.71-3.32A26.44,26.44,0,0,1,40,46.06a3.81,3.81,0,0,1-2.35,1.66l-.24-.47a8.35,8.35,0,0,0,3.77-10,12.18,12.18,0,0,1,1.17-2.85c4.24-5.94,1.18-14.25,1.18-14.25,1.18-1.9-.23-2.13-.23-2.13-1.65-.24-1.65.47-1.65.47h-.24l-.23-.24L37,16.62a3.1,3.1,0,0,0-2.12-.48,1.66,1.66,0,0,0,0,1.2,1.85,1.85,0,0,0,.71.23,2,2,0,0,1,2.35.71l-.23.24a1.49,1.49,0,0,0-1-.47c-.94-.24-.94.47-.94.47-.47.48-.7,0-.7,0v-.71c-1.18-.24-1-1.9-1-1.9a18.09,18.09,0,0,0-4,.95c-.71.24-.47.71-.47.71l.47.95-.23,1.19c-.71,1.66,1.17,1.9,1.17,1.9h2.83c2.12.47.47,1.66.47,1.66.23,2.37-1.18,1.9-1.18,1.9-1.88-1.42-2.82-.24-2.82-.24-.47,1.19.94,1.43.94,1.43,2.59,0,.94,1.9.94,1.9a2.33,2.33,0,0,1-2.35,1.18c-4.24-.47-5.19,1.66-5.19,1.66-1.41,1.67-1.17,6.41-1.17,6.41a9.75,9.75,0,0,1,0-6.17c-3.77,1.43-2.36,8.79-2.36,8.79-1.88-4-.7-6.41-.7-6.41-3.54.47-2.36,5.69-2.36,5.69l1.18,3.33-3.53,1.9c-2.83,1.66-4.71.24-4.71.24C5.65,39.89,0,44.64,0,44.64a8,8,0,0,0,6.12,1c-.94,1.18-4.24,2.61-4.24,2.61,5.66,2.37,7.3-.24,7.3-.24a3.59,3.59,0,0,1-.47,3.56c2.12.71,4.71-2.13,4.71-2.13a4.75,4.75,0,0,1-1.18,2.37c2.12,0,4.24-2.61,4.24-2.61a2.64,2.64,0,0,1-.7,2.14A6.61,6.61,0,0,0,20,48.44a5.69,5.69,0,0,1-.71,2.61,5.11,5.11,0,0,0,2.82-1.66c-3.06-2.14-2.35-3.8-2.35-3.8a5.28,5.28,0,0,0,4,4c2.59-.23,4-4.51,4-4.51,2.12-4,4.47-3.8,4.47-3.8C29.43,42.5,29.2,44.4,29.2,44.4c-1.18,4.27-2.83,5-2.83,5,.71,1.66,4.24,2.37,4.24,2.37a30.79,30.79,0,0,1,2.83,1.66c5.88,3.09,6.35,8.31,6.35,8.31,1,5.7,5.42,6.89,5.42,6.89,8.48,2.85,7.77,9,7.77,9-.47,9-5.89,12.34-5.89,12.34v.24a3,3,0,0,0,2.6-.24,3.33,3.33,0,0,1,0,2.38c4.47-.48,6.82-5.46,6.82-5.46a4.33,4.33,0,0,0,3.06,1.42c-1.41-1.9-.94-5.7-.94-5.7l1.65,1.19-.71-2.14-.47-1.42a6.67,6.67,0,0,0,2.12,1.19C61.22,81,60.75,80.49,60.28,79.54Z"/><path class="cls-2" d="M33.67,56.27a2.79,2.79,0,0,1,3.77,1.43l1.18,2.13a8,8,0,0,1,.7,1.43A3.29,3.29,0,0,0,37,59.59S33.91,58.41,33.67,56.27Z"/><polygon class="cls-2" points="35.56 14.73 35.56 15.2 41.91 17.57 42.62 17.1 35.56 14.73"/><path class="cls-2" d="M26.37,17.81s0,5,4.48,5c0,0,.47-.71,3.29.72l-.23.71a3.76,3.76,0,0,0-3.06-.71s-2.59.95-4.48-.48A3.23,3.23,0,0,1,26.37,17.81Z"/><rect class="cls-1" x="83.6" width="1.88" height="103.52"/></g></g></svg>