<svg xmlns="http://www.w3.org/2000/svg" width="25" height="25" viewBox="0 0 25 25">
  <g id="vuesax_linear_key" data-name="vuesax/linear/key" transform="translate(-684 -188)">
    <g id="key" transform="translate(684 188)">
      <path id="Vector" d="M18.534,13.461a7.89,7.89,0,0,1-7.917,1.948L5.711,20.3a2.016,2.016,0,0,1-1.552.51L1.888,20.5A1.966,1.966,0,0,1,.326,18.94L.013,16.669a2.1,2.1,0,0,1,.51-1.552l4.9-4.9a7.887,7.887,0,1,1,13.115,3.24Z" transform="translate(2.081 2.091)" fill="none" stroke="#acacac" stroke-linecap="round" stroke-linejoin="round" stroke-width="1.5"/>
      <path id="Vector-2" data-name="Vector" d="M0,0,2.4,2.4" transform="translate(7.177 18.219)" fill="none" stroke="#acacac" stroke-linecap="round" stroke-linejoin="round" stroke-width="1.5"/>
      <path id="Vector-3" data-name="Vector" d="M3.125,1.563A1.563,1.563,0,1,1,1.563,0,1.563,1.563,0,0,1,3.125,1.563Z" transform="translate(13.542 8.333)" fill="none" stroke="#acacac" stroke-linecap="round" stroke-linejoin="round" stroke-width="1.5"/>
      <path id="Vector-4" data-name="Vector" d="M0,0H25V25H0Z" transform="translate(25 25) rotate(180)" fill="none" opacity="0"/>
    </g>
  </g>
</svg>
