<svg xmlns="http://www.w3.org/2000/svg" width="30" height="30" viewBox="0 0 30 30">
  <g id="vuesax_linear_eye" data-name="vuesax/linear/eye" transform="translate(-108 -188)">
    <g id="eye" transform="translate(108 188)">
      <path id="Vector" d="M8.95,4.475A4.475,4.475,0,1,1,4.475,0,4.47,4.47,0,0,1,8.95,4.475Z" transform="translate(10.525 10.525)" fill="none" stroke="#108db2" stroke-linecap="round" stroke-linejoin="round" stroke-width="1.5"/>
      <path id="Vector-2" data-name="Vector" d="M12.231,20.688c4.412,0,8.525-2.6,11.388-7.1a6.657,6.657,0,0,0,0-6.488C20.756,2.6,16.644,0,12.231,0S3.706,2.6.844,7.1a6.657,6.657,0,0,0,0,6.488C3.706,18.087,7.819,20.688,12.231,20.688Z" transform="translate(2.769 4.65)" fill="none" stroke="#108db2" stroke-linecap="round" stroke-linejoin="round" stroke-width="1.5"/>
      <path id="Vector-3" data-name="Vector" d="M0,0H30V30H0Z" transform="translate(30 30) rotate(180)" fill="none" opacity="0"/>
    </g>
  </g>
</svg>
